<?xml version="1.0" standalone="no"?>
<!DOCTYPE svg PUBLIC "-//W3C//DTD SVG 20010904//EN"
 "http://www.w3.org/TR/2001/REC-SVG-20010904/DTD/svg10.dtd">
<svg version="1.0" xmlns="http://www.w3.org/2000/svg"
 width="500.000000pt" height="500.000000pt" viewBox="0 0 500.000000 500.000000"
 preserveAspectRatio="xMidYMid meet">

<g transform="translate(0.000000,500.000000) scale(0.100000,-0.100000)"
fill="#000000" stroke="none">
<path d="M220 4129 c-122 -51 -170 -265 -170 -754 0 -442 40 -676 123 -729 68
-44 139 -21 181 61 l25 48 1 -62 0 -63 55 0 55 0 0 400 0 400 -105 0 -105 0 0
-60 0 -60 46 0 47 0 -6 -202 c-7 -269 -30 -358 -94 -358 -33 0 -58 59 -75 175
-18 125 -18 809 1 920 18 110 43 165 74 165 51 0 73 -67 89 -272 l12 -148 59
0 59 0 -7 93 c-19 270 -49 373 -126 430 -31 23 -103 31 -139 16z"/>
<path d="M1886 4130 c-42 -13 -81 -55 -108 -114 -20 -45 -23 -66 -23 -181 1
-171 13 -213 135 -465 114 -233 140 -318 140 -449 -1 -141 -50 -216 -106 -160
-32 33 -52 120 -60 260 l-7 119 -60 0 -60 0 7 -117 c16 -272 71 -382 197 -399
34 -4 54 0 89 18 63 32 97 86 117 185 15 70 16 95 5 185 -15 139 -41 214 -139
407 -114 223 -136 289 -137 416 -1 106 12 158 45 175 43 23 74 -22 95 -139 7
-42 13 -111 14 -153 0 -106 2 -108 66 -108 l54 0 0 88 c-1 209 -44 357 -120
414 -30 21 -104 31 -144 18z"/>
<path d="M4404 4121 c-50 -23 -76 -58 -104 -141 -47 -140 -69 -487 -51 -820
21 -379 70 -512 199 -536 79 -15 157 39 192 133 41 111 52 213 57 535 9 552
-30 769 -150 827 -53 26 -90 26 -143 2z m111 -135 c40 -61 49 -171 49 -606 0
-344 -3 -429 -16 -498 -20 -103 -39 -134 -76 -130 -32 4 -56 46 -73 129 -15
76 -26 550 -18 759 8 180 27 305 54 346 21 32 60 31 80 0z"/>
<path d="M1015 4078 c-10 -87 -135 -1412 -135 -1430 0 -15 10 -18 60 -18 50 0
60 3 60 18 0 9 7 89 15 177 8 88 15 163 15 168 0 4 35 7 79 7 l78 0 12 -152
c18 -235 12 -218 82 -218 51 0 59 3 59 19 0 22 -127 1368 -136 1434 l-6 47
-88 0 -89 0 -6 -52z m125 -493 c16 -215 31 -406 33 -425 l2 -35 -69 -3 -69 -3
7 68 c10 101 56 733 56 767 0 91 12 -23 40 -369z"/>
<path d="M2580 4065 l0 -65 75 0 75 0 0 -685 0 -685 65 0 65 0 0 685 0 685 70
0 70 0 0 65 0 65 -210 0 -210 0 0 -65z"/>
<path d="M3410 3381 l0 -751 65 0 65 0 0 350 0 350 35 0 c47 0 80 -17 96 -49
9 -18 15 -104 20 -276 3 -137 10 -268 13 -290 16 -92 10 -85 81 -85 71 0 70
-2 54 70 -5 25 -13 162 -17 305 -9 283 -16 320 -75 374 l-26 24 39 45 c60 68
82 148 82 297 0 150 -22 230 -82 297 -54 62 -101 79 -237 85 l-113 6 0 -752z
m242 582 c41 -39 59 -109 59 -233 0 -181 -46 -270 -138 -270 l-33 0 0 263 c0
145 3 267 8 271 14 15 75 -3 104 -31z"/>
<path d="M4714 2500 c-76 -38 -107 -142 -65 -220 21 -40 89 -80 135 -80 46 0
118 40 139 78 45 78 12 187 -67 223 -53 24 -91 24 -142 -1z"/>
<path d="M1439 2372 c-143 -52 -227 -182 -270 -422 -10 -51 -14 -156 -13 -330
0 -225 3 -267 23 -360 42 -198 114 -310 236 -367 53 -25 71 -28 160 -28 93 0
105 3 167 33 105 51 173 153 217 323 58 227 50 668 -15 874 -44 137 -126 236
-227 274 -72 26 -208 28 -278 3z m186 -289 c38 -57 49 -156 49 -448 1 -304 -9
-400 -48 -457 -41 -62 -102 -43 -125 39 -24 84 -33 243 -28 483 6 296 24 389
80 409 30 11 53 3 72 -26z"/>
<path d="M4126 2365 c-134 -55 -210 -180 -253 -415 -24 -132 -24 -503 1 -644
30 -178 91 -310 169 -370 71 -54 124 -71 232 -71 87 0 107 3 156 26 144 68
219 202 255 458 20 145 14 513 -10 631 -61 293 -178 410 -405 410 -68 0 -99
-6 -145 -25z m269 -432 c69 -22 163 -117 189 -191 50 -143 1 -297 -123 -384
-164 -115 -401 -47 -483 139 -83 188 30 406 232 449 62 13 111 10 185 -13z"/>
<path d="M50 1625 l0 -745 128 0 128 0 -3 538 -2 537 62 -535 62 -535 138 -3
c111 -2 137 0 137 11 0 16 105 940 118 1037 5 39 7 -160 4 -492 l-5 -558 131
0 132 0 0 745 0 745 -210 0 c-199 0 -210 -1 -210 -19 0 -10 -20 -243 -45 -517
-25 -275 -45 -503 -45 -508 0 -5 -2 -7 -4 -5 -2 2 -26 239 -52 527 l-48 522
-208 0 -208 0 0 -745z"/>
<path d="M2070 1625 l0 -745 125 0 124 0 -4 493 c-3 270 -3 488 0 482 4 -9
205 -957 205 -969 0 -3 79 -6 175 -6 l175 0 0 745 0 745 -124 0 -124 0 3 -492
c3 -271 2 -484 -1 -473 -6 21 -204 953 -204 961 0 2 -79 4 -175 4 l-175 0 0
-745z"/>
<path d="M2960 1625 l0 -745 188 0 c210 0 281 10 362 48 202 98 302 401 271
820 -24 320 -104 493 -267 575 -77 39 -140 47 -354 47 l-200 0 0 -745z m408
449 c65 -42 95 -191 94 -464 0 -317 -46 -450 -157 -450 l-25 0 0 471 0 472 32
-7 c18 -3 43 -13 56 -22z"/>
</g>
</svg>
